<svg width="21" height="20" viewBox="0 0 21 20" fill="none" xmlns="http://www.w3.org/2000/svg">
<g clip-path="url(#clip0_63_331)">
<path d="M6.91666 18.75C7.60701 18.75 8.16666 18.1904 8.16666 17.5C8.16666 16.8096 7.60701 16.25 6.91666 16.25C6.2263 16.25 5.66666 16.8096 5.66666 17.5C5.66666 18.1904 6.2263 18.75 6.91666 18.75Z" fill="#C73B0F"/>
<path d="M15.6667 18.75C16.357 18.75 16.9167 18.1904 16.9167 17.5C16.9167 16.8096 16.357 16.25 15.6667 16.25C14.9763 16.25 14.4167 16.8096 14.4167 17.5C14.4167 18.1904 14.9763 18.75 15.6667 18.75Z" fill="#C73B0F"/>
<path d="M3.77916 1.7525C3.75085 1.61087 3.67436 1.48341 3.5627 1.3918C3.45103 1.3002 3.31109 1.25009 3.16666 1.25H0.666656V2.5H2.65416L5.05416 14.4975C5.08247 14.6391 5.15895 14.7666 5.27062 14.8582C5.38228 14.9498 5.52222 14.9999 5.66666 15H16.9167V13.75H6.17916L5.67916 11.25H16.9167C17.0588 11.25 17.1968 11.2015 17.3077 11.1125C17.4186 11.0235 17.4958 10.8994 17.5267 10.7606L18.9442 4.375H17.6648L16.4154 10H5.42916L3.77916 1.7525Z" fill="#C73B0F"/>
<path d="M11.9167 3.75V1.25H10.6667V3.75H8.16666V5H10.6667V7.5H11.9167V5H14.4167V3.75H11.9167Z" fill="#C73B0F"/>
</g>
<defs>
<clipPath id="clip0_63_331">
<rect width="20" height="20" fill="white" transform="translate(0.666656)"/>
</clipPath>
</defs>
</svg>
